<?xml version="1.0" encoding="utf-8"?>
<!-- Generator: Adobe Illustrator 27.5.0, SVG Export Plug-In . SVG Version: 6.00 Build 0)  -->
<svg version="1.1" xmlns="http://www.w3.org/2000/svg" xmlns:xlink="http://www.w3.org/1999/xlink" x="0px" y="0px"
	 viewBox="0 0 750 500" style="enable-background:new 0 0 750 500;" xml:space="preserve">
<g id="BACKGROUND">
	<rect style="fill:#2E2B48;" width="750" height="500"/>
</g>
<g id="OBJECTS">
	<path id="BACK_1_" style="fill:#3E3C5E;" d="M188.291,73.693c138.838-70.638,308.505,1.386,182.737,141.243
		c-89.967,100.046,28.205,240.108-117.911,249.32C93.481,474.321,65.146,324.65,67.12,262.84
		C69.189,198.074,108.592,114.242,188.291,73.693z M686.078,328.711c0-79.999-72.845-144.852-162.703-144.852
		S360.67,248.712,360.67,328.711s72.845,144.852,162.704,144.852S686.078,408.711,686.078,328.711z"/>
	<g id="RAYS">
		<g>
			
				<line style="fill:none;stroke:#FFFFFF;stroke-linecap:round;stroke-linejoin:round;stroke-miterlimit:10;" x1="692.257" y1="329.676" x2="725.311" y2="282.47"/>
			
				<line style="fill:none;stroke:#FFFFFF;stroke-linecap:round;stroke-linejoin:round;stroke-miterlimit:10;" x1="685.037" y1="339.986" x2="688.445" y2="335.12"/>
			
				<line style="fill:none;stroke:#FFFFFF;stroke-linecap:round;stroke-linejoin:round;stroke-miterlimit:10;" x1="649.729" y1="390.412" x2="680.895" y2="345.902"/>
		</g>
		
			<line style="fill:none;stroke:#FFFFFF;stroke-linecap:round;stroke-linejoin:round;stroke-miterlimit:10;" x1="405.251" y1="131.007" x2="451.533" y2="64.91"/>
		
			<line style="fill:none;stroke:#FFFFFF;stroke-linecap:round;stroke-linejoin:round;stroke-miterlimit:10;" x1="283.201" y1="472.473" x2="329.483" y2="406.375"/>
		
			<line style="fill:none;stroke:#21DAAF;stroke-linecap:round;stroke-linejoin:round;stroke-miterlimit:10;" x1="384.225" y1="287.556" x2="409.677" y2="251.207"/>
		
			<line style="fill:none;stroke:#21DAAF;stroke-linecap:round;stroke-linejoin:round;stroke-miterlimit:10;" x1="488.408" y1="457.599" x2="513.86" y2="421.249"/>
		
			<line style="fill:none;stroke:#FFFFFF;stroke-linecap:round;stroke-linejoin:round;stroke-miterlimit:10;" x1="496.035" y1="374.273" x2="506.234" y2="359.707"/>
		
			<line style="fill:none;stroke:#21DAAF;stroke-linecap:round;stroke-linejoin:round;stroke-miterlimit:10;" x1="32.774" y1="187.695" x2="112.16" y2="74.32"/>
		
			<line style="fill:none;stroke:#21DAAF;stroke-linecap:round;stroke-linejoin:round;stroke-miterlimit:10;" x1="598.682" y1="230.79" x2="678.068" y2="117.414"/>
		<g>
			
				<line style="fill:none;stroke:#FFFFFF;stroke-linecap:round;stroke-linejoin:round;stroke-miterlimit:10;" x1="113.017" y1="283.574" x2="192.403" y2="170.199"/>
			
				<line style="fill:none;stroke:#FFFFFF;stroke-linecap:round;stroke-linejoin:round;stroke-miterlimit:10;" x1="106.058" y1="293.513" x2="108.419" y2="290.142"/>
			
				<line style="fill:none;stroke:#FFFFFF;stroke-linecap:round;stroke-linejoin:round;stroke-miterlimit:10;" x1="42.725" y1="383.962" x2="100.05" y2="302.093"/>
		</g>
		<g>
			<path style="fill:none;stroke:#FF6C86;stroke-linecap:round;stroke-linejoin:round;stroke-miterlimit:10;" d="M551.6,128.456
				L431.069,300.592c-0.428,0.612-0.28,1.455,0.332,1.883c0.612,0.428,1.455,0.28,1.883-0.332l9.064-12.944
				c0.428-0.612,1.271-0.76,1.883-0.332c0.612,0.428,0.76,1.271,0.332,1.883l-3.83,5.469c-0.428,0.612-0.28,1.455,0.332,1.883
				c0.612,0.428,1.455,0.28,1.883-0.332l115.297-164.662c1.285-1.835,0.839-4.364-0.996-5.649v0
				C555.415,126.174,552.885,126.62,551.6,128.456z"/>
			<path style="fill:none;stroke:#FFFFFF;stroke-linecap:round;stroke-linejoin:round;stroke-miterlimit:10;" d="M552.936,129.386
				C552.936,129.386,552.936,129.386,552.936,129.386l-1.896,2.708c0,0,0,0,0,0c-0.769,1.099-0.502,2.613,0.596,3.383
				c1.099,0.769,2.613,0.502,3.383-0.596l1.896-2.708c0.769-1.099,0.502-2.613-0.596-3.383
				C555.22,128.02,553.705,128.287,552.936,129.386z"/>
		</g>
		<g>
			<path style="fill:none;stroke:#FF6C86;stroke-linecap:round;stroke-linejoin:round;stroke-miterlimit:10;" d="M320.939,75.81
				L212.482,230.704c-0.428,0.612-0.28,1.455,0.332,1.883c0.612,0.428,1.455,0.28,1.883-0.332l38.119-54.44
				c0.428-0.612,1.271-0.76,1.883-0.332c0.612,0.428,0.76,1.271,0.332,1.883l-3.829,5.469c-0.428,0.612-0.28,1.455,0.332,1.883
				c0.612,0.428,1.455,0.28,1.883-0.332l74.168-105.923c1.285-1.835,0.839-4.364-0.996-5.649l0,0
				C324.754,73.529,322.224,73.975,320.939,75.81z"/>
			<path style="fill:none;stroke:#FFFFFF;stroke-linecap:round;stroke-linejoin:round;stroke-miterlimit:10;" d="M322.275,76.741
				C322.275,76.741,322.275,76.741,322.275,76.741l-1.896,2.708c0,0,0,0,0,0c-0.769,1.099-0.502,2.613,0.596,3.383
				c1.099,0.769,2.613,0.502,3.383-0.596l1.896-2.708c0.769-1.099,0.502-2.613-0.596-3.383
				C324.559,75.375,323.044,75.642,322.275,76.741z"/>
		</g>
	</g>
	<g id="PRISMS">
		<g>
			<polygon style="fill:none;stroke:#FF6C86;stroke-linecap:round;stroke-linejoin:round;stroke-miterlimit:10;" points="
				476.419,131.784 467.569,145.043 451.673,143.85 460.523,130.592 			"/>
			<polygon style="fill:none;stroke:#FF6C86;stroke-linecap:round;stroke-linejoin:round;stroke-miterlimit:10;" points="
				451.673,143.85 458.291,157.423 474.187,158.615 467.569,145.043 			"/>
			<polygon style="fill:none;stroke:#FF6C86;stroke-linecap:round;stroke-linejoin:round;stroke-miterlimit:10;" points="
				476.419,131.784 467.569,145.043 474.187,158.615 483.037,145.357 			"/>
		</g>
		<g>
			<polygon style="fill:none;stroke:#21DAAF;stroke-linecap:round;stroke-linejoin:round;stroke-miterlimit:10;" points="
				105.918,370.89 90.285,374.007 79.888,361.924 95.521,358.807 			"/>
			<polygon style="fill:none;stroke:#21DAAF;stroke-linecap:round;stroke-linejoin:round;stroke-miterlimit:10;" points="
				79.888,361.924 74.97,376.201 85.367,388.284 90.285,374.007 			"/>
			<polygon style="fill:none;stroke:#21DAAF;stroke-linecap:round;stroke-linejoin:round;stroke-miterlimit:10;" points="
				105.918,370.89 90.285,374.007 85.367,388.284 101,385.167 			"/>
		</g>
		<g>
			<polygon style="fill:none;stroke:#FFFFFF;stroke-linecap:round;stroke-linejoin:round;stroke-miterlimit:10;" points="
				382.563,74.32 386.395,98.76 367.145,78.369 			"/>
			<polygon style="fill:none;stroke:#FFFFFF;stroke-linecap:round;stroke-linejoin:round;stroke-miterlimit:10;" points="
				363.096,93.787 386.395,98.76 367.145,78.369 			"/>
		</g>
		<g>
			<polygon style="fill:none;stroke:#21DAAF;stroke-linecap:round;stroke-linejoin:round;stroke-miterlimit:10;" points="
				714.012,371.741 717.844,396.182 698.594,375.791 			"/>
			<polygon style="fill:none;stroke:#21DAAF;stroke-linecap:round;stroke-linejoin:round;stroke-miterlimit:10;" points="
				694.545,391.209 717.844,396.182 698.594,375.791 			"/>
		</g>
		<g>
			
				<ellipse transform="matrix(0.9871 -0.1602 0.1602 0.9871 -17.9374 38.0565)" style="fill:none;stroke:#21DAAF;stroke-linecap:round;stroke-linejoin:round;stroke-miterlimit:10;" cx="227.08" cy="130.286" rx="13.596" ry="13.596"/>
			<path style="fill:none;stroke:#21DAAF;stroke-linecap:round;stroke-linejoin:round;stroke-miterlimit:10;" d="M240.658,131.007
				c-3.507,2.607-8.834,3.88-13.578,3.88c-4.751,0-9.064-1.273-13.597-3.887"/>
		</g>
		<g>
			
				<circle style="fill:none;stroke:#FFFFFF;stroke-linecap:round;stroke-linejoin:round;stroke-miterlimit:10;" cx="696.886" cy="246.045" r="13.596"/>
			<path style="fill:none;stroke:#FFFFFF;stroke-linecap:round;stroke-linejoin:round;stroke-miterlimit:10;" d="M710.464,246.766
				c-3.507,2.607-8.834,3.88-13.578,3.88c-4.751,0-9.064-1.273-13.597-3.887"/>
		</g>
		<g>
			<path style="fill:none;stroke:#FFFFFF;stroke-linecap:round;stroke-linejoin:round;stroke-miterlimit:10;" d="M88.441,196.361
				c-5.31-5.31-13.918-5.31-19.228,0c-5.31,5.31-5.31,13.918,0,19.228c5.31,5.31,13.918,5.31,19.228,0
				C93.751,210.279,93.751,201.671,88.441,196.361z"/>
			<path style="fill:none;stroke:#FFFFFF;stroke-linecap:round;stroke-linejoin:round;stroke-miterlimit:10;" d="M88.939,196.884
				c-0.636,4.324-3.503,8.99-6.857,12.345c-3.36,3.36-7.31,5.509-12.363,6.867"/>
		</g>
		<g>
			<polygon style="fill:none;stroke:#FF6C86;stroke-linecap:round;stroke-linejoin:round;stroke-miterlimit:10;" points="
				175.181,61.304 156.47,61.304 145.863,74.397 164.574,74.397 			"/>
			<polygon style="fill:none;stroke:#FF6C86;stroke-linecap:round;stroke-linejoin:round;stroke-miterlimit:10;" points="
				164.574,74.397 161.753,95.322 145.863,74.397 			"/>
			<path style="fill:none;stroke:#FF6C86;stroke-linecap:round;stroke-linejoin:round;stroke-miterlimit:10;" d="M175.181,61.304
				l-10.607,13.093c0,0-4.164,22.828-2.821,20.926C163.096,93.42,175.181,61.304,175.181,61.304z"/>
		</g>
		<g>
			<polygon style="fill:none;stroke:#FF6C86;stroke-linecap:round;stroke-linejoin:round;stroke-miterlimit:10;" points="
				607.115,162.645 589.25,168.206 583.013,183.86 600.878,178.298 			"/>
			<polygon style="fill:none;stroke:#FF6C86;stroke-linecap:round;stroke-linejoin:round;stroke-miterlimit:10;" points="
				600.878,178.298 604.404,199.117 583.013,183.86 			"/>
			<path style="fill:none;stroke:#FF6C86;stroke-linecap:round;stroke-linejoin:round;stroke-miterlimit:10;" d="M607.115,162.645
				l-6.237,15.654c0,0,2.809,23.034,3.526,20.819C605.121,196.902,607.115,162.645,607.115,162.645z"/>
		</g>
		<g>
			<polygon style="fill:none;stroke:#FFFFFF;stroke-linecap:round;stroke-linejoin:round;stroke-miterlimit:10;" points="
				395.809,334.118 391.977,309.678 411.227,330.069 			"/>
			<polygon style="fill:none;stroke:#FFFFFF;stroke-linecap:round;stroke-linejoin:round;stroke-miterlimit:10;" points="
				415.276,314.651 391.977,309.678 411.227,330.069 			"/>
		</g>
	</g>
	<g id="DOTS">
		<path style="fill:none;stroke:#FFFFFF;stroke-linecap:round;stroke-linejoin:round;stroke-miterlimit:10;" d="M50.395,107.716
			c0-1.993-1.616-3.609-3.609-3.609s-3.609,1.616-3.609,3.609c0,1.993,1.616,3.609,3.609,3.609S50.395,109.709,50.395,107.716z"/>
		<path style="fill:none;stroke:#FFFFFF;stroke-linecap:round;stroke-linejoin:round;stroke-miterlimit:10;" d="M50.395,300.127
			c0-1.993-1.616-3.609-3.609-3.609s-3.609,1.616-3.609,3.609c0,1.993,1.616,3.609,3.609,3.609S50.395,302.12,50.395,300.127z"/>
		<path style="fill:none;stroke:#21DAAF;stroke-linecap:round;stroke-linejoin:round;stroke-miterlimit:10;" d="M232.066,39.879
			c0-1.993-1.616-3.609-3.609-3.609c-1.993,0-3.609,1.616-3.609,3.609s1.616,3.609,3.609,3.609
			C230.45,43.488,232.066,41.872,232.066,39.879z"/>
		<path style="fill:none;stroke:#21DAAF;stroke-linecap:round;stroke-linejoin:round;stroke-miterlimit:10;" d="M129.49,461.246
			c0-1.993-1.616-3.609-3.609-3.609c-1.993,0-3.609,1.616-3.609,3.609c0,1.993,1.616,3.609,3.609,3.609
			C127.874,464.855,129.49,463.239,129.49,461.246z"/>
		
			<circle style="fill:none;stroke:#21DAAF;stroke-linecap:round;stroke-linejoin:round;stroke-miterlimit:10;" cx="638.375" cy="52.094" r="3.609"/>
		<path style="fill:none;stroke:#21DAAF;stroke-linecap:round;stroke-linejoin:round;stroke-miterlimit:10;" d="M623.542,388.284
			c0-1.993-1.616-3.609-3.609-3.609c-1.993,0-3.609,1.616-3.609,3.609c0,1.993,1.616,3.609,3.609,3.609
			C621.926,391.893,623.542,390.277,623.542,388.284z"/>
		<path style="fill:none;stroke:#21DAAF;stroke-linecap:round;stroke-linejoin:round;stroke-miterlimit:10;" d="M88.976,269.382
			c0-1.993-1.616-3.609-3.609-3.609c-1.993,0-3.609,1.616-3.609,3.609s1.616,3.609,3.609,3.609
			C87.36,272.991,88.976,271.375,88.976,269.382z"/>
		<path style="fill:none;stroke:#21DAAF;stroke-linecap:round;stroke-linejoin:round;stroke-miterlimit:10;" d="M542.795,464.855
			c0-1.993-1.616-3.609-3.609-3.609s-3.609,1.616-3.609,3.609c0,1.993,1.616,3.609,3.609,3.609S542.795,466.848,542.795,464.855z"/>
		<path style="fill:none;stroke:#FFFFFF;stroke-linecap:round;stroke-linejoin:round;stroke-miterlimit:10;" d="M412.412,209.736
			c0-1.993-1.616-3.609-3.609-3.609c-1.993,0-3.609,1.616-3.609,3.609s1.616,3.609,3.609,3.609
			C410.796,213.344,412.412,211.729,412.412,209.736z"/>
		<path style="fill:none;stroke:#FFFFFF;stroke-linecap:round;stroke-linejoin:round;stroke-miterlimit:10;" d="M546.404,78.672
			c0-1.993-1.616-3.609-3.609-3.609c-1.993,0-3.609,1.616-3.609,3.609c0,1.993,1.616,3.609,3.609,3.609
			C544.788,82.281,546.404,80.665,546.404,78.672z"/>
		<path style="fill:none;stroke:#FFFFFF;stroke-linecap:round;stroke-linejoin:round;stroke-miterlimit:10;" d="M222.52,454.029
			c0-1.993-1.616-3.609-3.609-3.609s-3.609,1.616-3.609,3.609s1.616,3.609,3.609,3.609S222.52,456.022,222.52,454.029z"/>
		<path style="fill:none;stroke:#FFFFFF;stroke-linecap:round;stroke-linejoin:round;stroke-miterlimit:10;" d="M279.434,95.322
			c0-1.993-1.616-3.609-3.609-3.609c-1.993,0-3.609,1.616-3.609,3.609c0,1.993,1.616,3.609,3.609,3.609
			C277.818,98.931,279.434,97.316,279.434,95.322z"/>
		<path style="fill:none;stroke:#FFFFFF;stroke-linecap:round;stroke-linejoin:round;stroke-miterlimit:10;" d="M728.92,339.329
			c0-1.993-1.616-3.609-3.609-3.609c-1.993,0-3.609,1.616-3.609,3.609c0,1.993,1.616,3.609,3.609,3.609
			C727.304,342.938,728.92,341.322,728.92,339.329z"/>
		<path style="fill:none;stroke:#FFFFFF;stroke-linecap:round;stroke-linejoin:round;stroke-miterlimit:10;" d="M681.677,170.493
			c0-1.993-1.616-3.609-3.609-3.609s-3.609,1.616-3.609,3.609s1.616,3.609,3.609,3.609S681.677,172.486,681.677,170.493z"/>
		<path style="fill:none;stroke:#FFFFFF;stroke-linecap:round;stroke-linejoin:round;stroke-miterlimit:10;" d="M427.671,356.098
			c0-1.993-1.616-3.609-3.609-3.609c-1.993,0-3.609,1.616-3.609,3.609s1.616,3.609,3.609,3.609
			C426.055,359.707,427.671,358.091,427.671,356.098z"/>
	</g>
	<g id="SEAT">
		<path style="fill:#AF224E;" d="M296.803,434.863V228.284c0-8.918-7.229-16.147-16.147-16.147H172.68
			c-17.016,0-31.858,11.639-35.82,28.187c-6.957,29.06-12.719,83.036,0.898,172.948c1.879,12.407,12.519,21.591,25.067,21.591
			H296.803z"/>
		<path style="fill:#DB3E60;" d="M290.678,434.863V229.016c0-6.614-5.362-11.976-11.976-11.976h-88.367
			c-17.016,0-31.858,11.383-35.82,27.567c-6.957,28.421-12.718,81.209,0.898,169.141c1.879,12.134,12.519,21.116,25.067,21.116
			H290.678z"/>
		<path style="fill:#AF224E;" d="M290.678,258.627c-16.727-4.452-48.009-8.008-71.767,17.286
			c-29.078,30.958-28.08,127.226-27.173,158.951h98.94V258.627z"/>
		<g>
			
				<line style="fill:none;stroke:#1C0000;stroke-linecap:round;stroke-linejoin:round;stroke-miterlimit:10;" x1="170.83" y1="248.317" x2="282.52" y2="248.317"/>
			
				<line style="fill:none;stroke:#1C0000;stroke-linecap:round;stroke-linejoin:round;stroke-miterlimit:10;" x1="170.83" y1="280.567" x2="282.52" y2="280.567"/>
			
				<line style="fill:none;stroke:#1C0000;stroke-linecap:round;stroke-linejoin:round;stroke-miterlimit:10;" x1="170.83" y1="312.817" x2="282.52" y2="312.817"/>
			
				<line style="fill:none;stroke:#1C0000;stroke-linecap:round;stroke-linejoin:round;stroke-miterlimit:10;" x1="170.83" y1="345.067" x2="282.52" y2="345.067"/>
			
				<line style="fill:none;stroke:#1C0000;stroke-linecap:round;stroke-linejoin:round;stroke-miterlimit:10;" x1="170.83" y1="377.318" x2="282.52" y2="377.318"/>
			
				<line style="fill:none;stroke:#1C0000;stroke-linecap:round;stroke-linejoin:round;stroke-miterlimit:10;" x1="170.83" y1="409.568" x2="282.52" y2="409.568"/>
		</g>
		<path style="fill:none;stroke:#1C0000;stroke-linecap:round;stroke-linejoin:round;stroke-miterlimit:10;" d="M296.803,434.863
			V228.284c0-8.918-7.229-16.147-16.147-16.147H172.68c-17.016,0-31.858,11.639-35.82,28.187
			c-6.957,29.06-12.719,83.036,0.898,172.948c1.879,12.407,12.519,21.591,25.067,21.591H296.803z"/>
	</g>
	<g id="GAMER">
		<g>
			<g>
				<path style="fill:#6CA8BB;" d="M364.756,321.898c-0.731-2.731-1.404-5.529-2.016-8.393
					c-7.386-34.578-12.757-44.649-29.542-63.449c-0.069-0.077-0.142-0.15-0.212-0.226l0,0l-13.72,1.065l-18.421-7.498
					c-16.628,4.979-34.859,20.112-46.986,45.937c-21.597,45.992-25.402,145.53-25.402,145.53h124.548
					c-0.671-18.967-1.546-63.035-1.546-63.036l3.392-38.684L364.756,321.898z"/>
				<path style="fill:#438291;" d="M351.46,371.827l3.312-37.773c-6.379-23.474-11.167-48.749-11.167-48.749l0,0
					C343.605,285.308,350.991,345.901,351.46,371.827z"/>
				<path style="fill:#438291;" d="M289.386,362.331c-3.517-6.498-6.028-13.802-7.11-22.003
					c-6.169-46.779,19.246-80.56,29.823-92.35l-11.253-4.581c-16.628,4.979-34.859,20.112-46.986,45.937
					c-21.597,45.992-25.402,145.53-25.402,145.53h50.481C280.185,408.592,286.563,375.812,289.386,362.331z"/>
			</g>
			<g>
				<path style="fill:#F1B39C;" d="M450.476,398.207c0,0,10.672,1.2,13.54,3.103c2.868,1.903,4.329,4.367,6.37,3.673
					c2.041-0.694,0.8-6.623-6.48-9.078C456.626,393.451,450.476,398.207,450.476,398.207z"/>
				<path style="fill:#F1B39C;" d="M447.498,392.238c0,0,10.371-2.124,18.203,0.523c7.832,2.647,10.843,11.058,7.719,12.139
					c-2.831,0.98-7.501-6.962-7.501-6.962S450.697,397.091,447.498,392.238z"/>
				<path style="fill:#F1B39C;" d="M447.388,391.355c0,0,7.699,0.331,17.87,3.144c6.582,1.82,14.96,5.734,13.127,8.604
					c-1.269,1.986-9.162-1.995-11.968-2.758c-4.833-1.313-11.472-0.772-11.472-0.772s0.294,3.401,3.769,4.615
					c3.475,1.213,6.821,1.985,6.471,4.583c-0.386,2.868-10.792,0.234-17.796-3.241c0,0-56.917,9.29-95.928-33.702
					c-0.211-11.7-1.832-30.459-3.546-47.524c0,0,7.052,0.181,16.843-2.405c8.092,30.232,23.43,51.975,44.983,58.748
					C433.239,388.032,447.388,391.355,447.388,391.355z"/>
				<path style="fill:#D68C7B;" d="M441.153,406.151c-17.282-3.758-64.712-16.344-76.806-43.318
					c-4.331-9.66-8.621-24.557-12.166-38.722c-2.685,0.229-4.268,0.192-4.268,0.192c1.714,17.065,3.335,35.824,3.546,47.524
					C382.67,406.222,425.336,407.154,441.153,406.151z"/>
				<path style="fill:#F1B39C;" d="M451.276,399.297c0,0,5.184,0.331,9.596,2.62s6.205,1.434,5.681-0.855
					c-0.524-2.289-3.386-4.164-7.594-4.826C454.751,395.575,451.276,399.297,451.276,399.297z"/>
				<path style="fill:none;stroke:#1C0000;stroke-linecap:round;stroke-linejoin:round;stroke-miterlimit:10;" d="M474.605,403.261
					c-0.107,0.808-0.498,1.401-1.185,1.639c-1.657,0.573-3.944-1.91-5.556-4.068"/>
				<path style="fill:none;stroke:#1C0000;stroke-linecap:round;stroke-linejoin:round;stroke-miterlimit:10;" d="M461.538,391.789
					c1.419,0.208,2.828,0.521,4.163,0.972c2.614,0.884,4.691,2.409,6.182,4.09"/>
				<path style="fill:none;stroke:#1C0000;stroke-linecap:round;stroke-linejoin:round;stroke-miterlimit:10;" d="M458.333,399.463
					c2.347,0.494,4.586,1.12,5.684,1.848c2.868,1.903,4.329,4.367,6.37,3.673c0.333-0.113,0.578-0.365,0.724-0.719"/>
				<path style="fill:none;stroke:#1C0000;stroke-linecap:round;stroke-linejoin:round;stroke-miterlimit:10;" d="M454.989,399.868
					c1.755,0.385,3.897,1.019,5.883,2.049c2.738,1.421,4.468,1.63,5.261,1.038"/>
				<path style="fill:none;stroke:#1C0000;stroke-linecap:round;stroke-linejoin:round;stroke-miterlimit:10;" d="M347.914,324.304
					c0,0,7.052,0.181,16.843-2.405c8.092,30.232,23.43,51.975,44.983,58.748c23.5,7.385,37.648,10.709,37.648,10.709
					s7.699,0.331,17.87,3.144c6.582,1.82,14.96,5.734,13.127,8.604c-1.269,1.986-9.162-1.995-11.968-2.758
					c-4.833-1.313-11.472-0.772-11.472-0.772s0.294,3.401,3.769,4.615c3.475,1.213,6.821,1.985,6.471,4.583
					c-0.386,2.868-10.792,0.234-17.796-3.241c0,0-28.722,4.688-59.344-8.008"/>
			</g>
			<path style="fill:none;stroke:#1C0000;stroke-linecap:round;stroke-linejoin:round;stroke-miterlimit:10;" d="M364.756,321.898
				c-0.731-2.731-1.404-5.529-2.016-8.393c-7.355-34.437-12.713-44.567-29.338-63.22"/>
			<path style="fill:none;stroke:#1C0000;stroke-linecap:round;stroke-linejoin:round;stroke-miterlimit:10;" d="M299.582,243.794
				c-16.282,5.354-33.902,20.368-45.722,45.54c-21.597,45.992-25.402,145.53-25.402,145.53h124.548
				c-0.671-18.967-1.546-63.035-1.546-63.036c-0.469-25.927-7.854-86.522-7.854-86.522"/>
			<g>
				<path style="fill:#1C0000;stroke:#1C0000;stroke-linecap:round;stroke-linejoin:round;stroke-miterlimit:10;" d="
					M402.031,400.771h-11.32c-10.186,0-18.443,8.257-18.443,18.443v1.55h37.734c3.183,0,5.764-2.581,5.764-5.764v-0.493
					C415.766,406.921,409.617,400.771,402.031,400.771z"/>
				<path style="fill:#F1B39C;" d="M409.782,393.487c-6.644-5.455-17.387-6.239-26.507-6.35c-9.12-0.112-38.746,0.56-59.56-24.451
					c-8.655-10.4-12.417-26.952-13.862-42.743l-27.85-8.956l-22.337,16.409c1.257,14.066,4.319,28.906,10.755,41.389
					c18.576,36.033,54.049,42.1,74.303,43.319c17.99,1.082,39.376-6.783,43.321-10.143c0.001-0.001,0.003-0.002,0.004-0.003
					c0.971,0.137,2.126,0.083,3.506-0.273c0,0,2.559,3.339,3.603,5.479c1.785,3.659,5.377,2.69,4.594-1.423
					c0,0,1.673,3.532,3.483,3.273c2.35-0.336,1.804-4.154,1.804-4.154s1.049,4.196,3.441,3.693s1.896-3.941,1.622-4.658
					c0,0,1.945,3.727,4.42,3.269C417,406.706,415.893,398.505,409.782,393.487z"/>
				<path style="fill:#D68C7B;" d="M282.276,340.327c-1.375-10.423-1.176-20.197,0.072-29.229l-0.345-0.111l-22.337,16.409
					c1.256,14.066,4.319,28.906,10.755,41.389c18.576,36.033,54.049,42.1,74.303,43.319c6.425,0.387,13.281-0.371,19.623-1.654
					C344.958,405.953,288.67,388.815,282.276,340.327z"/>
				<path style="fill:#6CA8BB;" d="M310.37,277.081h-49.013c0,0-4.061,23.78-1.691,50.315c9.431-0.249,29.333-1.519,50.187-7.453
					C307.823,297.76,310.37,277.081,310.37,277.081z"/>
				<path style="fill:#438291;" d="M281.331,325.692c0.04-19.096,5.11-35.547,11.395-48.611l-14.709-5.112l-16.661,5.112
					c0,0-4.061,23.78-1.691,50.315C264.533,327.268,272.194,326.865,281.331,325.692z"/>
				<g>
					<path style="fill:none;stroke:#1C0000;stroke-linecap:round;stroke-linejoin:round;stroke-miterlimit:10;" d="M259.666,327.396
						c1.257,14.066,4.319,28.906,10.755,41.389c18.576,36.033,54.049,42.1,74.303,43.319c17.99,1.082,39.376-6.783,43.321-10.143
						c0.001-0.001,0.003-0.002,0.004-0.003c0.971,0.137,2.126,0.083,3.506-0.273c0,0,2.559,3.339,3.603,5.479
						c1.785,3.659,5.377,2.69,4.594-1.423c0,0,1.673,3.532,3.483,3.273c2.35-0.336,1.804-4.154,1.804-4.154s1.049,4.196,3.441,3.693
						s1.896-3.941,1.622-4.658c0,0,1.945,3.727,4.42,3.269c2.476-0.458,1.369-8.659-4.742-13.676
						c-6.644-5.455-17.387-6.239-26.507-6.35"/>
					<path style="fill:none;stroke:#1C0000;stroke-linecap:round;stroke-linejoin:round;stroke-miterlimit:10;" d="M312.141,335.614
						c-1.078-5.14-1.81-10.447-2.288-15.671"/>
					<path style="fill:none;stroke:#1C0000;stroke-linecap:round;stroke-linejoin:round;stroke-miterlimit:10;" d="M259.665,291.743
						c-0.745,9.31-1.208,22.124,0.001,35.653c9.431-0.249,29.333-1.519,50.187-7.453c-2.029-22.183,0.517-42.862,0.517-42.862"/>
					<path style="fill:none;stroke:#1C0000;stroke-linecap:round;stroke-linejoin:round;stroke-miterlimit:10;" d="M383.275,397.712
						c0,0,0.862,3.698,4.77,4.249"/>
					<path style="fill:none;stroke:#1C0000;stroke-linecap:round;stroke-linejoin:round;stroke-miterlimit:10;" d="M394.927,397.712
						c0,0,3.336,1.944,4.826,8.029"/>
					<path style="fill:none;stroke:#1C0000;stroke-linecap:round;stroke-linejoin:round;stroke-miterlimit:10;" d="M400.55,396.488
						c0,0,3.966,4.049,4.49,8.372"/>
					<path style="fill:none;stroke:#1C0000;stroke-linecap:round;stroke-linejoin:round;stroke-miterlimit:10;" d="M406.075,395.502
						c0,0,3.021,3.301,4.028,8.393"/>
				</g>
			</g>
		</g>
		<g>
			<path style="fill:#FF6C86;" d="M315.879,224.654c0,0-16.617-4.707-8.057-29.938c0,0-10.113-19.994-3.218-34.798
				c2.912-6.253,6.884-10.946,11.253-14.251c-1.35-1.897-3.617-5.833-1.936-7.179c2.238-1.79,5.776,6.043,5.776,6.043
				s-2.195-9.568,0.994-10.855c2.32-0.936,3.721,4.255,4.313,7.156c4.286-1.411,8.529-1.717,12.192-1.057
				c0,0,7.05-9.456,20.758-8.728c13.708,0.727,17.513,12.365,17.513,12.365s17.681,1.846,19.807,18.632
				c2.126,16.785-8.561,20.366-21.318,20.254L315.879,224.654z"/>
			<path style="fill:#DB3156;" d="M325.004,140.833c-0.592-2.9-1.994-8.091-4.313-7.156c-3.189,1.287-0.994,10.855-0.994,10.855
				s-3.538-7.833-5.776-6.043c-1.682,1.345,0.586,5.281,1.935,7.179c-4.368,3.305-8.341,7.998-11.253,14.251
				c-6.895,14.804,3.218,34.798,3.218,34.798c-8.561,25.23,8.057,29.938,8.057,29.938l5.289-3.857
				c2.312-10.333,5.389-22.945,9.009-35.043c2.936-9.813,7.149-16.995,11.352-22.173c0,0-4.04-13.573,10.609-15.379
				c0,0,3.024-12.975,16.195-13.796c-2.566-1.75-5.954-3.123-10.378-3.358c-13.708-0.727-20.758,8.728-20.758,8.728
				C333.534,139.115,329.291,139.421,325.004,140.833"/>
			<path style="fill:#F1B39C;" d="M332.987,249.83c-7.377-8.056-19.278-10.285-32.141-6.434c1.997,3.09,7.074,9.895,17.582,11.191
				C324.542,255.342,329.178,253.837,332.987,249.83z"/>
			<path style="fill:#F1B39C;" d="M306.342,243.397l16.618-49.236c0,0-14.187-8.683-8.449-16.841
				c7.162-10.183,15.666-0.224,18.476,6.266c2.606,6.02,7.765-4.7,10.618-13.093c0,0,8.309,6.127,14.016,6.63
				c5.707,0.504,8.812-0.839,17.289,2.938c0,0,1.595,17.401-3.105,33.319c-3.493,11.831-18.632,19.303-36.089,15.359l-6.379,19.619
				C329.338,248.358,320.777,254.698,306.342,243.397z"/>
			<path style="fill:#F1B39C;" d="M306.342,243.397l16.618-49.236c0,0-14.187-8.683-8.449-16.841
				c7.162-10.183,15.666-0.224,18.476,6.266c2.606,6.02,7.765-4.7,10.618-13.093c0,0,8.309,6.127,14.016,6.63
				c5.707,0.504,8.812-0.839,17.289,2.938c0,0,1.595,17.401-3.105,33.319c-3.493,11.831-18.632,19.303-36.089,15.359l-6.379,19.619
				C329.338,248.358,320.777,254.698,306.342,243.397z"/>
			<path style="fill:#D68C7B;" d="M331.729,181.122c-3.59-6.14-10.923-12.755-17.219-3.803c-5.738,8.159,8.449,16.841,8.449,16.841
				l-16.618,49.236c0.804,0.63,1.587,1.196,2.354,1.72l7.829-1.72c0,0,5.428-30.154,13.652-57.643
				C330.661,184.137,331.182,182.598,331.729,181.122z"/>
			<path style="fill:#D68C7B;" d="M300.845,243.397c1.278,1.979,3.829,5.474,8.249,8.077c4.343-5.263,7.43-8.077,7.43-8.077
				s-3.336-0.662-8.095-1.573C305.958,242.109,303.423,242.625,300.845,243.397z"/>
			<g>
				<path style="fill:none;stroke:#1C0000;stroke-linecap:round;stroke-linejoin:round;stroke-miterlimit:10;" d="M363.412,190.692
					c0,0,1.399,6.266,0,7.553c-1.399,1.287-2.742-0.336-2.742-0.336"/>
				<path style="fill:none;stroke:#1C0000;stroke-linecap:round;stroke-linejoin:round;stroke-miterlimit:10;" d="M345.144,201.678
					c0,0,5.148,8.057,13.988,6.826"/>
				<path style="fill:none;stroke:#1C0000;stroke-linecap:round;stroke-linejoin:round;stroke-miterlimit:10;" d="M347.634,186.383
					c0,0,5.315-2.574,9.008,2.686"/>
				<path style="fill:none;stroke:#1C0000;stroke-linecap:round;stroke-linejoin:round;stroke-miterlimit:10;" d="M367.44,190.692
					c0,0,4.808-2.33,7.606,1.979"/>
			</g>
			<g>
				
					<ellipse transform="matrix(0.3827 -0.9239 0.9239 0.3827 12.4241 432.9324)" style="fill:#D68C7B;" cx="330.177" cy="207.169" rx="7.553" ry="7.553"/>
				<path style="fill:#D68C7B;" d="M372.438,211.081c-0.999-0.488-2.117-0.769-3.304-0.769c-4.172,0-7.553,3.382-7.553,7.553
					c0,2.391,1.114,4.518,2.847,5.902c3.587-2.753,6.173-6.311,7.377-10.387C372.03,212.616,372.241,211.849,372.438,211.081z"/>
			</g>
			<path style="fill:#D68C7B;" d="M332.806,237.69l2.91-8.951c-5.763-1.455-9.008-4.084-9.008-4.084
				C326.213,231.87,330.305,235.892,332.806,237.69z"/>
			<path style="fill:none;stroke:#1C0000;stroke-linecap:round;stroke-linejoin:round;stroke-miterlimit:10;" d="M373.541,139.692
				c1.392,2.084,1.927,3.721,1.927,3.721"/>
			<path style="fill:none;stroke:#1C0000;stroke-linecap:round;stroke-linejoin:round;stroke-miterlimit:10;" d="M338.848,137.981
				c2.821-2.704,9.239-7.457,19.107-6.934c6.426,0.341,10.675,3.079,13.377,5.892"/>
			<path style="fill:none;stroke:#1C0000;stroke-linecap:round;stroke-linejoin:round;stroke-miterlimit:10;" d="M313.11,223.34
				c-4.322-2.675-11.558-10.145-5.288-28.623c0,0-10.113-19.994-3.218-34.798c2.912-6.253,6.884-10.946,11.253-14.251
				c-1.35-1.897-3.617-5.833-1.936-7.179c2.238-1.79,5.776,6.043,5.776,6.043s-2.195-9.568,0.994-10.855
				c2.32-0.936,3.721,4.255,4.313,7.156"/>
			
				<line style="fill:none;stroke:#1C0000;stroke-linecap:round;stroke-linejoin:round;stroke-miterlimit:10;" x1="320.218" y1="202.284" x2="306.796" y2="242.049"/>
			<g>
				<path style="fill:#3544AE;" d="M322.625,170.097c-0.035,0-0.07-0.001-0.105-0.003c-1.17-0.057-2.073-1.052-2.016-2.222
					c0.038-0.782,1.063-19.272,12.378-30.445c0.833-0.823,2.177-0.815,3,0.019c0.823,0.834,0.815,2.177-0.019,3
					c-10.151,10.025-11.113,27.458-11.121,27.632C324.687,169.214,323.749,170.097,322.625,170.097z"/>
				<circle style="fill:#1C0000;" cx="322.623" cy="185.754" r="19.401"/>
				<circle style="fill:#3544AE;" cx="322.623" cy="185.754" r="11.232"/>
				<g>
					<path style="fill:#1C0000;" d="M318.371,180.956L318.371,180.956c-1.02,0-1.846,0.827-1.846,1.846v5.902
						c0,1.02,0.827,1.846,1.846,1.846l0,0c1.02,0,1.846-0.827,1.846-1.846v-5.902C320.218,181.783,319.391,180.956,318.371,180.956z
						"/>
					<path style="fill:#1C0000;" d="M326.876,180.956L326.876,180.956c1.02,0,1.846,0.827,1.846,1.846v5.902
						c0,1.02-0.827,1.846-1.846,1.846l0,0c-1.02,0-1.846-0.827-1.846-1.846v-5.902C325.029,181.783,325.856,180.956,326.876,180.956
						z"/>
				</g>
			</g>
		</g>
	</g>
	
		<linearGradient id="LIGHT_00000118366067035642076860000000167468434557391022_" gradientUnits="userSpaceOnUse" x1="204.3108" y1="232.5842" x2="616.4378" y2="352.3345">
		<stop  offset="0.1383" style="stop-color:#14F7C2;stop-opacity:0"/>
		<stop  offset="1" style="stop-color:#14F7C2"/>
	</linearGradient>
	<path id="LIGHT" style="fill:url(#LIGHT_00000118366067035642076860000000167468434557391022_);" d="M656.619,204.352
		L330.655,76.623C281.15,57.225,225.796,85.3,212.201,136.702l-49.316,186.458c-14.926,56.432,27.627,111.703,86,111.703h191.765
		l212.249-85.932L656.619,204.352z"/>
	<g id="COMPUTER">
		<g>
			
				<rect x="431.116" y="415.336" style="fill:#1C0000;stroke:#1C0000;stroke-linecap:round;stroke-linejoin:round;stroke-miterlimit:10;" width="71.506" height="5.427"/>
			<path style="fill:#3E3C5E;" d="M655.833,348.931H460.791c-4.775,0-8.647-3.871-8.647-8.647V211.541
				c0-4.775,3.871-8.647,8.647-8.647h195.043c4.775,0,8.647,3.871,8.647,8.647v128.744
				C664.48,345.06,660.609,348.931,655.833,348.931z"/>
			
				<line style="fill:none;stroke:#1C0000;stroke-linecap:round;stroke-linejoin:round;stroke-miterlimit:10;" x1="459.707" y1="340.327" x2="459.707" y2="211.498"/>
			<path style="fill:none;stroke:#1C0000;stroke-linecap:round;stroke-linejoin:round;stroke-miterlimit:10;" d="M486.731,336.781
				c0-1.545-1.252-2.797-2.797-2.797c-1.545,0-2.797,1.252-2.797,2.797c0,1.545,1.252,2.797,2.797,2.797
				C485.479,339.578,486.731,338.325,486.731,336.781z"/>
			<path style="fill:none;stroke:#1C0000;stroke-linecap:round;stroke-linejoin:round;stroke-miterlimit:10;" d="M500.496,336.781
				c0-1.545-1.252-2.797-2.797-2.797c-1.545,0-2.797,1.252-2.797,2.797c0,1.545,1.252,2.797,2.797,2.797
				C499.244,339.578,500.496,338.325,500.496,336.781z"/>
			<path style="fill:none;stroke:#1C0000;stroke-linecap:round;stroke-linejoin:round;stroke-miterlimit:10;" d="M605.199,283.627
				c0-25.895-20.992-46.887-46.887-46.887c-25.895,0-46.887,20.992-46.887,46.887"/>
			<path style="fill:#3E3C5E;" d="M503.074,411.784H613.55c3.525,0,6.383,2.858,6.383,6.383v2.597H496.691v-2.597
				C496.691,414.641,499.549,411.784,503.074,411.784z"/>
			<path style="fill:none;stroke:#1C0000;stroke-linecap:round;stroke-linejoin:round;stroke-miterlimit:10;" d="M655.833,348.931
				H460.791c-4.775,0-8.647-3.871-8.647-8.647V211.541c0-4.775,3.871-8.647,8.647-8.647h195.043c4.775,0,8.647,3.871,8.647,8.647
				v128.744C664.48,345.06,660.609,348.931,655.833,348.931z"/>
			<path style="fill:#2E2B48;" d="M540.221,411.784h31.034V303.042c0-1.452-1.177-2.63-2.63-2.63h-25.774
				c-1.452,0-2.63,1.177-2.63,2.63V411.784z"/>
			<path style="fill:#3E3C5E;" d="M542.795,411.784h31.034V303.042c0-1.452-1.177-2.63-2.63-2.63h-25.774
				c-1.452,0-2.63,1.177-2.63,2.63V411.784z"/>
			<path style="fill:none;stroke:#1C0000;stroke-linecap:round;stroke-linejoin:round;stroke-miterlimit:10;" d="M542.795,411.784
				h31.034V303.042c0-1.452-1.177-2.63-2.63-2.63h-25.774c-1.452,0-2.63,1.177-2.63,2.63V411.784z"/>
			<path style="fill:none;stroke:#1C0000;stroke-linecap:round;stroke-linejoin:round;stroke-miterlimit:10;" d="M503.074,411.784
				H613.55c3.525,0,6.383,2.858,6.383,6.383v2.597H496.691v-2.597C496.691,414.641,499.549,411.784,503.074,411.784z"/>
		</g>
		<g>
			<path style="fill:#515172;" d="M689.835,434.863h-432.84c-3.893,0-7.05-3.156-7.05-7.05l0,0c0-3.894,3.156-7.05,7.05-7.05h432.84
				c3.894,0,7.05,3.156,7.05,7.05l0,0C696.885,431.707,693.729,434.863,689.835,434.863z"/>
			<path style="fill:none;stroke:#1C0000;stroke-linecap:round;stroke-linejoin:round;stroke-miterlimit:10;" d="M689.835,434.863
				h-432.84c-3.893,0-7.05-3.156-7.05-7.05l0,0c0-3.894,3.156-7.05,7.05-7.05h432.84c3.894,0,7.05,3.156,7.05,7.05l0,0
				C696.885,431.707,693.729,434.863,689.835,434.863z"/>
		</g>
	</g>
</g>
</svg>
